<svg width="25" height="24" viewBox="0 0 25 24" fill="none" xmlns="http://www.w3.org/2000/svg">
<g id="download_icon">
<path id="Shape" fill-rule="evenodd" clip-rule="evenodd" d="M6.5 18C5.95 18 5.5 18.45 5.5 19C5.5 19.55 5.95 20 6.5 20H18.5C19.05 20 19.5 19.55 19.5 19C19.5 18.45 19.05 18 18.5 18H6.5ZM9.50004 10H7.91004C7.02004 10 6.58004 11.08 7.21004 11.71L11.8 16.3C12.19 16.69 12.82 16.69 13.21 16.3L17.8 11.71C18.43 11.08 17.98 10 17.09 10H15.5V5.00003C15.5 4.45003 15.05 4.00003 14.5 4.00003H10.5C9.95004 4.00003 9.50004 4.45003 9.50004 5.00003V10Z" fill="white"/>
</g>
</svg>
